<mxfile host="app.diagrams.net" modified="2023-04-22T15:13:55.743Z" agent="Mozilla/5.0 (Windows NT 10.0; Win64; x64; rv:109.0) Gecko/20100101 Firefox/112.0" etag="F9e6Vmf_qKdRZv426row" version="21.2.1" type="google">
  <diagram name="Pagina-1" id="8THRR7oNbIxbzNn5Cju-">
    <mxGraphModel grid="1" page="1" gridSize="1" guides="1" tooltips="1" connect="1" arrows="1" fold="1" pageScale="1" pageWidth="500" pageHeight="250" math="0" shadow="0">
      <root>
        <mxCell id="0" />
        <mxCell id="1" parent="0" />
        <mxCell id="OdPCvstiOvUhMwxC7j98-20" value="" style="endArrow=classicThin;html=1;rounded=0;endFill=1;startSize=2;endSize=2;fillColor=#f8cecc;strokeColor=#b85450;strokeWidth=2;" edge="1" parent="1">
          <mxGeometry width="50" height="50" relative="1" as="geometry">
            <mxPoint x="430" y="58" as="sourcePoint" />
            <mxPoint x="430" y="199" as="targetPoint" />
          </mxGeometry>
        </mxCell>
        <mxCell id="OdPCvstiOvUhMwxC7j98-19" value="" style="endArrow=classicThin;html=1;rounded=0;endFill=1;startSize=2;endSize=2;fillColor=#f8cecc;strokeColor=#b85450;strokeWidth=2;" edge="1" parent="1">
          <mxGeometry width="50" height="50" relative="1" as="geometry">
            <mxPoint x="353" y="103" as="sourcePoint" />
            <mxPoint x="353" y="198" as="targetPoint" />
          </mxGeometry>
        </mxCell>
        <mxCell id="OdPCvstiOvUhMwxC7j98-18" value="" style="endArrow=classicThin;html=1;rounded=0;endFill=1;startSize=2;endSize=2;fillColor=#f8cecc;strokeColor=#b85450;strokeWidth=2;" edge="1" parent="1">
          <mxGeometry width="50" height="50" relative="1" as="geometry">
            <mxPoint x="290" y="57" as="sourcePoint" />
            <mxPoint x="290" y="102" as="targetPoint" />
          </mxGeometry>
        </mxCell>
        <mxCell id="OdPCvstiOvUhMwxC7j98-2" value="" style="endArrow=none;html=1;rounded=0;strokeWidth=2;" edge="1" parent="1">
          <mxGeometry width="50" height="50" relative="1" as="geometry">
            <mxPoint x="17" y="38" as="sourcePoint" />
            <mxPoint x="143" y="38" as="targetPoint" />
          </mxGeometry>
        </mxCell>
        <mxCell id="OdPCvstiOvUhMwxC7j98-5" value="&lt;div style=&quot;font-size: 18px;&quot; align=&quot;center&quot;&gt;&lt;font style=&quot;font-size: 18px;&quot;&gt;&lt;sup&gt;111&lt;/sup&gt;Ag&lt;/font&gt;&lt;/div&gt;" style="text;html=1;strokeColor=none;fillColor=none;align=center;verticalAlign=middle;whiteSpace=wrap;rounded=0;" vertex="1" parent="1">
          <mxGeometry x="51" y="41" width="64" height="30" as="geometry" />
        </mxCell>
        <mxCell id="OdPCvstiOvUhMwxC7j98-7" value="&lt;font style=&quot;font-size: 13px;&quot;&gt;1/2-&lt;/font&gt;" style="text;html=1;strokeColor=none;fillColor=none;align=center;verticalAlign=middle;whiteSpace=wrap;rounded=0;" vertex="1" parent="1">
          <mxGeometry x="4" y="11" width="52" height="30" as="geometry" />
        </mxCell>
        <mxCell id="OdPCvstiOvUhMwxC7j98-8" value="" style="endArrow=classicThin;html=1;rounded=0;endFill=1;startSize=2;endSize=2;fillColor=#dae8fc;strokeColor=#6c8ebf;strokeWidth=2;" edge="1" parent="1">
          <mxGeometry width="50" height="50" relative="1" as="geometry">
            <mxPoint x="143" y="37" as="sourcePoint" />
            <mxPoint x="218" y="199" as="targetPoint" />
          </mxGeometry>
        </mxCell>
        <mxCell id="OdPCvstiOvUhMwxC7j98-9" value="" style="endArrow=none;html=1;rounded=0;strokeWidth=2;exitX=0.162;exitY=1.028;exitDx=0;exitDy=0;exitPerimeter=0;" edge="1" parent="1">
          <mxGeometry width="50" height="50" relative="1" as="geometry">
            <mxPoint x="218.7199999999999" y="199.83999999999997" as="sourcePoint" />
            <mxPoint x="490" y="199" as="targetPoint" />
          </mxGeometry>
        </mxCell>
        <mxCell id="OdPCvstiOvUhMwxC7j98-10" value="&lt;div style=&quot;font-size: 18px;&quot; align=&quot;center&quot;&gt;&lt;font style=&quot;font-size: 18px;&quot;&gt;&lt;sup&gt;111&lt;/sup&gt;Cd&lt;/font&gt;&lt;/div&gt;" style="text;html=1;strokeColor=none;fillColor=none;align=center;verticalAlign=middle;whiteSpace=wrap;rounded=0;" vertex="1" parent="1">
          <mxGeometry x="315" y="204" width="64" height="30" as="geometry" />
        </mxCell>
        <mxCell id="OdPCvstiOvUhMwxC7j98-11" value="&lt;font style=&quot;font-size: 12px;&quot;&gt;1/2+&lt;/font&gt;" style="text;html=1;strokeColor=none;fillColor=none;align=center;verticalAlign=middle;whiteSpace=wrap;rounded=0;" vertex="1" parent="1">
          <mxGeometry x="209" y="169" width="60" height="30" as="geometry" />
        </mxCell>
        <mxCell id="OdPCvstiOvUhMwxC7j98-14" value="" style="endArrow=classicThin;html=1;rounded=0;endFill=1;startSize=2;endSize=2;fillColor=#dae8fc;strokeColor=#6c8ebf;strokeWidth=2;entryX=0.016;entryY=0.92;entryDx=0;entryDy=0;entryPerimeter=0;" edge="1" parent="1" target="OdPCvstiOvUhMwxC7j98-16">
          <mxGeometry width="50" height="50" relative="1" as="geometry">
            <mxPoint x="143" y="38" as="sourcePoint" />
            <mxPoint x="193" y="77" as="targetPoint" />
          </mxGeometry>
        </mxCell>
        <mxCell id="OdPCvstiOvUhMwxC7j98-15" value="" style="endArrow=classicThin;html=1;rounded=0;exitX=0.998;exitY=0.161;exitDx=0;exitDy=0;exitPerimeter=0;endFill=1;startSize=2;endSize=2;fillColor=#dae8fc;strokeColor=#6c8ebf;strokeWidth=2;" edge="1" parent="1">
          <mxGeometry width="50" height="50" relative="1" as="geometry">
            <mxPoint x="143.00199999999995" y="37.829999999999984" as="sourcePoint" />
            <mxPoint x="219" y="58" as="targetPoint" />
          </mxGeometry>
        </mxCell>
        <mxCell id="OdPCvstiOvUhMwxC7j98-16" value="&lt;font style=&quot;font-size: 12px;&quot;&gt;5/2+&lt;/font&gt;" style="text;html=1;strokeColor=none;fillColor=none;align=center;verticalAlign=middle;whiteSpace=wrap;rounded=0;" vertex="1" parent="1">
          <mxGeometry x="218" y="76" width="42" height="30" as="geometry" />
        </mxCell>
        <mxCell id="OdPCvstiOvUhMwxC7j98-17" value="&lt;font style=&quot;font-size: 12px;&quot;&gt;3/2+&lt;/font&gt;" style="text;html=1;strokeColor=none;fillColor=none;align=center;verticalAlign=middle;whiteSpace=wrap;rounded=0;" vertex="1" parent="1">
          <mxGeometry x="209" y="31" width="60" height="30" as="geometry" />
        </mxCell>
        <mxCell id="OdPCvstiOvUhMwxC7j98-21" value="&lt;font style=&quot;font-size: 13px;&quot;&gt;7.45 d&lt;/font&gt;" style="text;html=1;strokeColor=none;fillColor=none;align=center;verticalAlign=middle;whiteSpace=wrap;rounded=0;" vertex="1" parent="1">
          <mxGeometry x="114" y="90" width="60" height="30" as="geometry" />
        </mxCell>
        <mxCell id="OdPCvstiOvUhMwxC7j98-22" value="&lt;div&gt;&lt;font color=&quot;#bf3728&quot;&gt;97 keV&lt;/font&gt;&lt;/div&gt;&lt;div&gt;&lt;font color=&quot;#bf3728&quot;&gt;(0.12%)&lt;br&gt;&lt;/font&gt;&lt;/div&gt;" style="text;html=1;strokeColor=none;fillColor=none;align=center;verticalAlign=middle;whiteSpace=wrap;rounded=0;" vertex="1" parent="1">
          <mxGeometry x="294" y="62" width="43" height="33" as="geometry" />
        </mxCell>
        <mxCell id="OdPCvstiOvUhMwxC7j98-23" value="&lt;font style=&quot;font-size: 12px;&quot; color=&quot;#7ea6e0&quot;&gt;1%&lt;/font&gt;" style="text;html=1;strokeColor=none;fillColor=none;align=center;verticalAlign=middle;whiteSpace=wrap;rounded=0;" vertex="1" parent="1">
          <mxGeometry x="180" y="96" width="32" height="10" as="geometry" />
        </mxCell>
        <mxCell id="OdPCvstiOvUhMwxC7j98-24" value="&lt;font style=&quot;font-size: 12px;&quot; color=&quot;#7ea6e0&quot;&gt;7%&lt;/font&gt;" style="text;html=1;strokeColor=none;fillColor=none;align=center;verticalAlign=middle;whiteSpace=wrap;rounded=0;" vertex="1" parent="1">
          <mxGeometry x="187" y="60" width="32" height="10" as="geometry" />
        </mxCell>
        <mxCell id="OdPCvstiOvUhMwxC7j98-25" value="&lt;font style=&quot;font-size: 12px;&quot; color=&quot;#7ea6e0&quot;&gt;92%&lt;/font&gt;" style="text;html=1;strokeColor=none;fillColor=none;align=center;verticalAlign=middle;whiteSpace=wrap;rounded=0;" vertex="1" parent="1">
          <mxGeometry x="170" y="156" width="32" height="10" as="geometry" />
        </mxCell>
        <mxCell id="OdPCvstiOvUhMwxC7j98-27" value="&lt;div&gt;&lt;font color=&quot;#bf3728&quot;&gt;342 keV&lt;/font&gt;&lt;/div&gt;&lt;div&gt;&lt;font color=&quot;#bf3728&quot;&gt;(6.17%)&lt;br&gt;&lt;/font&gt;&lt;/div&gt;" style="text;html=1;strokeColor=none;fillColor=none;align=center;verticalAlign=middle;whiteSpace=wrap;rounded=0;" vertex="1" parent="1">
          <mxGeometry x="432" y="114" width="55" height="15" as="geometry" />
        </mxCell>
        <mxCell id="OdPCvstiOvUhMwxC7j98-28" value="&lt;div&gt;&lt;font color=&quot;#bf3728&quot;&gt;245 keV&lt;/font&gt;&lt;/div&gt;&lt;div&gt;&lt;font color=&quot;#bf3728&quot;&gt;(1.24%)&lt;br&gt;&lt;/font&gt;&lt;/div&gt;" style="text;html=1;strokeColor=none;fillColor=none;align=center;verticalAlign=middle;whiteSpace=wrap;rounded=0;" vertex="1" parent="1">
          <mxGeometry x="357" y="145" width="54" height="15" as="geometry" />
        </mxCell>
        <mxCell id="DXVDLZJKmyt4DsiujJM1-5" value="" style="endArrow=none;html=1;rounded=0;strokeWidth=2;exitX=0.162;exitY=1.028;exitDx=0;exitDy=0;exitPerimeter=0;" edge="1" parent="1">
          <mxGeometry width="50" height="50" relative="1" as="geometry">
            <mxPoint x="218.99999999999991" y="103.83999999999997" as="sourcePoint" />
            <mxPoint x="490.28" y="103" as="targetPoint" />
          </mxGeometry>
        </mxCell>
        <mxCell id="DXVDLZJKmyt4DsiujJM1-7" value="" style="endArrow=none;html=1;rounded=0;strokeWidth=2;exitX=0.162;exitY=1.028;exitDx=0;exitDy=0;exitPerimeter=0;" edge="1" parent="1">
          <mxGeometry width="50" height="50" relative="1" as="geometry">
            <mxPoint x="218.99999999999991" y="57.839999999999975" as="sourcePoint" />
            <mxPoint x="490.28" y="57" as="targetPoint" />
          </mxGeometry>
        </mxCell>
        <mxCell id="DXVDLZJKmyt4DsiujJM1-8" value="&lt;font style=&quot;font-size: 16px;&quot; color=&quot;#7ea6e0&quot;&gt;β&lt;/font&gt;&lt;font style=&quot;font-size: 16px;&quot; color=&quot;#7ea6e0&quot;&gt;-&lt;/font&gt;" style="text;html=1;strokeColor=none;fillColor=none;align=center;verticalAlign=middle;whiteSpace=wrap;rounded=0;" vertex="1" parent="1">
          <mxGeometry x="175" y="30" width="32" height="10" as="geometry" />
        </mxCell>
      </root>
    </mxGraphModel>
  </diagram>
</mxfile>
